<svg width="16" height="16" viewBox="0 0 16 16" fill="none" xmlns="http://www.w3.org/2000/svg">
<path d="M10.707 1.63605C10.8945 1.82358 10.9998 2.07788 10.9998 2.34305C10.9998 2.60821 10.8945 2.86252 10.707 3.05005L5.75698 8.00005L10.707 12.95C10.8891 13.1387 10.9899 13.3913 10.9877 13.6535C10.9854 13.9156 10.8802 14.1665 10.6948 14.3519C10.5094 14.5373 10.2586 14.6424 9.99639 14.6447C9.73419 14.647 9.48159 14.5462 9.29298 14.364L3.63598 8.70705C3.44851 8.51952 3.3432 8.26521 3.3432 8.00005C3.3432 7.73488 3.44851 7.48058 3.63598 7.29305L9.29298 1.63605C9.48051 1.44858 9.73482 1.34326 9.99998 1.34326C10.2651 1.34326 10.5195 1.44858 10.707 1.63605Z" fill="#69B199"/>
</svg>
