<svg width="24" height="24" viewBox="0 0 24 24" fill="none" xmlns="http://www.w3.org/2000/svg">
<path d="M12 22C17.523 22 22 17.523 22 12C22 6.477 17.523 2 12 2C6.477 2 2 6.477 2 12C2 17.523 6.477 22 12 22Z" stroke="#EEF0EB" stroke-width="1.5"/>
<path d="M2 10.4198C3.5075 9.70832 4.6225 9.60882 5.345 10.1223C6.4285 10.8923 6.564 14.0318 9.029 12.5318C11.4935 11.0313 7.9735 10.4198 8.7375 8.24682C9.5015 6.07332 12.004 7.76182 12.2525 5.38132C12.4185 3.79432 10.5205 3.18682 6.5575 3.55932" stroke="#EEF0EB" stroke-width="1.5"/>
<path d="M18 4C15.143 6.4945 14.145 8.0005 15.0065 8.5185C16.2985 9.296 16.8465 8.2015 18.4235 8.5185C20 8.8355 19.6585 10.973 18.8295 10.973C18 10.973 13.705 10.426 13.9215 12.9325C14.1375 15.439 16.7215 15.81 16.7215 17.2105C16.7215 18.144 16.1495 19.573 15.0065 21.497" stroke="#EEF0EB" stroke-width="1.5" stroke-linecap="round"/>
<path d="M3.05251 16.4631C3.39317 16.3132 3.7357 16.1675 4.08001 16.0261C6.00351 15.2491 7.43101 15.0661 8.36201 15.4766C10.008 16.2031 9.37501 17.6701 9.89101 18.2106C10.406 18.7511 11.694 18.5941 11.694 19.6221C11.694 20.3076 11.464 21.0821 11.0035 21.9451" stroke="#EEF0EB" stroke-width="1.5" stroke-linecap="round"/>
</svg>
