<?xml version="1.0" encoding="UTF-8"?>
<svg width="700pt" height="700pt" version="1.1" viewBox="0 0 700 700" xmlns="http://www.w3.org/2000/svg">
 <path d="m262.32 35.027c-40.297 0.003906-80.598 15.352-111.29 46.039-61.383 61.383-61.383 161.16 0 222.54 54.473 54.477 139.11 60.465 200.39 18.25l26.797 26.762c0.50781 9.1094 4.082 18.094 11.004 25.02l140.14 140.14c14.965 14.965 39.449 14.973 54.414 0 14.965-14.965 14.965-39.449 0-54.414l-140.14-140.14c-6.9258-6.9258-15.906-10.496-25.02-11.004l-26.797-26.762c42.223-61.285 36.246-145.95-18.25-200.43-30.691-30.691-70.992-46.047-111.29-46.039zm0 17.398c35.781-0.003906 71.57 13.664 98.918 41.016 54.699 54.695 54.672 143.14 0 197.83-54.695 54.695-143.1 54.695-197.8 0-54.695-54.695-54.695-143.1 0-197.8 27.348-27.336 63.109-41.047 98.883-41.051zm5.2656 22.32c-3.543-0.17578-7.0859-0.17578-10.629 0-28.348 1.2773-56.293 12.75-77.895 34.352-45.906 45.906-45.906 120.58 0 166.49s120.58 45.906 166.49 0c16.742-16.742 27.422-37.363 31.957-58.961 0.54688-2.2969 0.13672-4.7148-1.1289-6.707-1.2617-1.9961-3.2812-3.3906-5.5898-3.875-2.3086-0.48438-4.7188-0.015625-6.6758 1.3008-1.9609 1.3164-3.3047 3.3711-3.7266 5.6914-3.8672 18.391-12.906 35.875-27.207 50.176-39.223 39.219-102.52 39.219-141.74 0-39.223-39.219-39.223-102.53 0-141.74 36.906-36.91 95.207-39.039 134.6-6.5273v-0.003906c1.7734 1.6055 4.125 2.4102 6.5117 2.2344 2.3828-0.17578 4.5938-1.3203 6.1133-3.168 1.5195-1.8438 2.2148-4.2344 1.9297-6.6055-0.28906-2.375-1.5352-4.5273-3.4492-5.9609-20.227-16.695-44.75-25.621-69.555-26.727zm-5.4023 42.555 0.003906-0.003906c-2.3242 0.035156-4.5352 0.99219-6.1484 2.6602-1.6172 1.668-2.5039 3.9062-2.4688 6.2266v85.961c-0.03125 2.3438 0.875 4.6016 2.5195 6.2695 1.6445 1.668 3.8906 2.6055 6.2305 2.6055 2.3438 0 4.5898-0.9375 6.2344-2.6055 1.6445-1.668 2.5508-3.9258 2.5156-6.2695v-85.961c0.039063-2.3672-0.88672-4.6484-2.5586-6.3242-1.6758-1.6758-3.957-2.5977-6.3242-2.5625zm96.625 17.055 0.003906-0.003907c-2.9297 0.24609-5.543 1.9453-6.9531 4.5234-1.4102 2.582-1.4297 5.6953-0.054687 8.2969 4.5859 9.0781 7.7188 18.703 9.3672 28.539 0.33594 2.332 1.5938 4.4258 3.4961 5.8164 1.8984 1.3906 4.2773 1.957 6.6016 1.5703 2.3203-0.38672 4.3906-1.6914 5.7383-3.625 1.3477-1.9297 1.8594-4.3203 1.4219-6.6328-1.9336-11.547-5.6094-22.887-11.004-33.566-1.4414-2.9648-4.4297-4.8672-7.7266-4.9219-0.29688-0.011718-0.59375-0.011718-0.89062 0zm-96.488 107.63v-0.003906c-3.293-0.007813-6.457 1.2969-8.793 3.625-2.332 2.3281-3.6445 5.4883-3.6445 8.7852 0 3.293 1.3125 6.4531 3.6445 8.7812 2.3359 2.3281 5.5 3.6328 8.793 3.6211 6.8516 0 12.406-5.5547 12.41-12.402 0-6.8555-5.5547-12.41-12.41-12.41zm118.67 53.422 17.328 17.328c-3.25 1.7344-6.3594 3.7969-9.0898 6.5273s-4.7969 5.8438-6.5273 9.0898l-17.363-17.328c2.7812-2.418 5.5898-4.7695 8.2383-7.418 2.6367-2.6406 5.0039-5.4648 7.418-8.2383zm35.445 30.012c5.332-0.003906 10.672 2.0547 14.832 6.2188l0.82422 0.82422-29.668 29.668-0.82422-0.82422c-8.3242-8.3242-8.3242-21.309 0-29.633 4.1602-4.1602 9.5-6.25 14.836-6.2539zm28.027 19.414 113.79 113.79-29.668 29.668-113.79-113.79zm126.16 126.16 0.78906 0.78906c8.3203 8.3203 8.3242 21.344 0 29.668-8.3242 8.3242-21.348 8.3164-29.668 0l-0.78906-0.78906z"/>
</svg>
